HIERARCHY
ROOT Hips
{
	OFFSET 0.000000 0.000000 0.000000
	CHANNELS 6 Xposition Yposition Zposition Zrotation Yrotation Xrotation 
	JOINT LHipJoint
	{
		OFFSET 0.000000 0.000000 0.000000
		CHANNELS 3 Zrotation Yrotation Xrotation
		JOINT LeftUpLeg
		{
			OFFSET 1.363060 -1.794630 0.839290
			CHANNELS 3 Zrotation Yrotation Xrotation
			JOINT LeftLeg
			{
				OFFSET 2.448110 -6.726130 0.000000
				CHANNELS 3 Zrotation Yrotation Xrotation
				JOINT LeftFoot
				{
					OFFSET 2.562200 -7.039590 0.000000
					CHANNELS 3 Zrotation Yrotation Xrotation
					JOINT LeftToeBase
					{
						OFFSET 0.157640 -0.433110 2.322550
						CHANNELS 3 Zrotation Yrotation Xrotation
						End Site
						{
							OFFSET 0.000000 0.000000 0.000000
						}
					}
				}
			}
		}
	}
	JOINT RHipJoint
	{
		OFFSET 0.000000 0.000000 0.000000
		CHANNELS 3 Zrotation Yrotation Xrotation
		JOINT RightUpLeg
		{
			OFFSET -1.305520 -1.794630 0.839290
			CHANNELS 3 Zrotation Yrotation Xrotation
			JOINT RightLeg
			{
				OFFSET -2.542530 -6.985550 0.000000
				CHANNELS 3 Zrotation Yrotation Xrotation
				JOINT RightFoot
				{
					OFFSET -2.568260 -7.056230 0.000000
					CHANNELS 3 Zrotation Yrotation Xrotation
					JOINT RightToeBase
					{
						OFFSET -0.164730 -0.452590 2.363150
						CHANNELS 3 Zrotation Yrotation Xrotation
						End Site
						{
							OFFSET 0.000000 0.000000 0.000000
						}
					}
				}
			}
		}
	}
	JOINT LowerBack
	{
		OFFSET 0.000000 0.000000 0.000000
		CHANNELS 3 Zrotation Yrotation Xrotation
		JOINT Spine
		{
			OFFSET 0.028270 2.035590 -0.193380
			CHANNELS 3 Zrotation Yrotation Xrotation
			JOINT Spine1
			{
				OFFSET 0.056720 2.048850 -0.042750
				CHANNELS 3 Zrotation Yrotation Xrotation
				JOINT Neck
				{
					OFFSET 0.000000 0.000000 0.000000
					CHANNELS 3 Zrotation Yrotation Xrotation
					JOINT Neck1
					{
						OFFSET -0.054170 1.746240 0.172020
						CHANNELS 3 Zrotation Yrotation Xrotation
						JOINT Head
						{
							OFFSET 0.104070 1.761360 -0.123970
							CHANNELS 3 Zrotation Yrotation Xrotation
							End Site
							{
								OFFSET 0.000000 0.000000 0.000000
							}
						}
					}
				}
				JOINT LeftShoulder
				{
					OFFSET 0.000000 0.000000 0.000000
					CHANNELS 3 Zrotation Yrotation Xrotation
					JOINT LeftArm
					{
						OFFSET 3.362410 1.200890 -0.311210
						CHANNELS 3 Zrotation Yrotation Xrotation
						JOINT LeftForeArm
						{
							OFFSET 4.983000 -0.000000 -0.000000
							CHANNELS 3 Zrotation Yrotation Xrotation
							JOINT LeftHand
							{
								OFFSET 3.483560 -0.000000 -0.000000
								CHANNELS 3 Zrotation Yrotation Xrotation
								JOINT LeftFingerBase
								{
									OFFSET 0.000000 0.000000 0.000000
									CHANNELS 3 Zrotation Yrotation Xrotation
									JOINT LeftHandIndex1
									{
										OFFSET 0.715260 -0.000000 -0.000000
										CHANNELS 3 Zrotation Yrotation Xrotation
										End Site
										{
											OFFSET 0.000000 0.000000 0.000000
										}
									}
								}
								JOINT LThumb
								{
									OFFSET 0.000000 0.000000 0.000000
									CHANNELS 3 Zrotation Yrotation Xrotation
									End Site
									{
										OFFSET 0.000000 0.000000 0.000000
									}
								}
							}
						}
					}
				}
				JOINT RightShoulder
				{
					OFFSET 0.000000 0.000000 0.000000
					CHANNELS 3 Zrotation Yrotation Xrotation
					JOINT RightArm
					{
						OFFSET -3.136600 1.374050 -0.404650
						CHANNELS 3 Zrotation Yrotation Xrotation
						JOINT RightForeArm
						{
							OFFSET -5.241900 -0.000000 -0.000000
							CHANNELS 3 Zrotation Yrotation Xrotation
							JOINT RightHand
							{
								OFFSET -3.444170 -0.000000 -0.000000
								CHANNELS 3 Zrotation Yrotation Xrotation
								JOINT RightFingerBase
								{
									OFFSET 0.000000 0.000000 0.000000
									CHANNELS 3 Zrotation Yrotation Xrotation
									JOINT RightHandIndex1
									{
										OFFSET -0.622530 -0.000000 -0.000000
										CHANNELS 3 Zrotation Yrotation Xrotation
										End Site
										{
											OFFSET 0.000000 0.000000 0.000000
										}
									}
								}
								JOINT RThumb
								{
									OFFSET 0.000000 0.000000 0.000000
									CHANNELS 3 Zrotation Yrotation Xrotation
									End Site
									{
										OFFSET 0.000000 0.000000 0.000000
									}
								}
							}
						}
					}
				}
			}
		}
	}
}
MOTION
Frames: 8
Frame Time: 0.008333
0.813413 26.778101 -15.818236 0.333162 -3.978204 5.518504 3.896678 3.109264 1.122273 -19.794684 -5.439297 -18.646129 3.943870 11.565452 36.108907 2.226279 2.003975 30.390598 0.000800 0.177600 0.488000 -5.676780 -4.069624 0.495322 26.662406 -1.246958 -21.914228 -3.953008 -10.220853 31.709174 0.530422 -17.257623 19.991900 -0.534700 -4.685300 13.013100 2.465727 2.885331 12.418863 0.930431 4.014985 -0.733419 0.912824 2.379196 -8.317251 -9.702041 -3.920879 -10.665065 5.730986 -3.995833 10.461457 3.926800 -2.168100 7.617800 -7.380613 3.460499 -2.274775 -83.850895 1.659802 6.258500 13.390095 -23.721960 -3.053962 -1.526036 -2.053893 3.228398 26.800083 12.738033 7.885100 -7.125000 0.000000 0.000000 0.633600 46.835300 0.028700 5.830434 -2.310513 -1.590400 82.803596 -0.464117 -19.734133 -10.825898 15.825925 -1.483331 1.940981 -0.645330 6.978253 -27.299749 9.675211 -5.541400 7.125000 0.000000 0.000000 -1.624400 -18.603100 -1.021700 
0.808411 26.820912 -15.803432 0.402214 -3.741295 5.341262 3.896809 3.108750 1.124091 -19.809153 -5.567736 -18.675575 3.875497 11.482660 35.797033 2.034134 2.323547 29.307397 0.004300 0.423800 1.164400 -5.674100 -4.074059 0.456289 26.607681 -1.479297 -21.612175 -3.818171 -9.985594 30.948580 0.476497 -16.994586 20.200235 -0.431700 -4.216300 11.685900 2.605346 2.780942 12.642988 0.905804 3.901042 -0.592628 0.743996 2.312529 -8.095598 -9.382591 -3.962318 -11.528683 5.568774 -4.046421 10.496381 3.793300 -2.171000 7.788100 -7.483239 3.455578 -2.211839 -84.057873 1.012964 5.813008 12.357933 -21.999614 -2.489668 -1.528152 -2.185431 2.381578 26.894987 14.172493 8.707000 -7.125000 0.000000 0.000000 0.549100 48.562300 0.048200 5.915738 -2.345905 -1.596103 83.145220 -0.378944 -21.456703 -10.544273 15.417586 -1.392139 1.920169 -0.651065 6.411323 -26.719658 9.881074 -5.532700 7.125000 0.000000 0.000000 -1.179900 -18.398700 -0.747400 
0.802410 26.848219 -15.782426 0.492433 -3.397715 5.121873 3.885924 3.105036 1.122372 -19.859281 -5.782312 -18.583304 3.774064 11.354665 35.340067 1.884943 2.507909 28.432559 0.005000 0.454700 1.249300 -5.681569 -4.073406 0.395598 26.479121 -1.609812 -21.071639 -3.681932 -9.726962 30.115633 0.531760 -17.333740 20.229658 -0.519900 -4.621200 12.831300 2.538052 2.634022 12.733489 1.027328 3.702635 -0.326097 1.000418 2.214452 -7.550536 -9.545441 -4.051732 -13.068316 5.649840 -4.017997 10.720957 3.826500 -2.135000 8.171300 -7.555708 3.464822 -2.139780 -84.699301 0.183664 5.346981 11.546118 -20.571096 -2.059280 -1.539722 -2.303862 1.531950 27.144208 15.365258 9.464100 -7.125000 0.000000 0.000000 0.644200 50.033100 0.079900 5.993019 -2.372921 -1.624824 83.062409 -0.310472 -21.277950 -10.463490 15.282748 -1.363276 1.904812 -0.604621 5.047373 -26.128139 9.988377 -5.450200 7.125000 0.000000 0.000000 -0.733700 -18.337600 -0.465600 
0.794908 26.864824 -15.757920 0.595477 -3.258275 5.014316 3.881638 3.111298 1.140679 -19.959330 -5.878893 -18.515679 3.649952 11.191742 34.791499 1.709975 2.539838 27.302580 0.000600 -0.158100 -0.434300 -5.680500 -4.071712 0.374222 26.300606 -1.521704 -20.585254 -3.541523 -9.453544 29.241179 0.477911 -17.319190 20.672099 -0.600000 -4.958500 13.790300 2.492451 2.626338 12.908048 0.979025 3.697808 -0.468395 0.885243 2.210113 -7.967807 -9.376098 -4.058660 -12.671159 5.843225 -4.110580 10.635275 3.859000 -2.156900 8.080800 -7.624640 3.531292 -2.106540 -84.731040 0.580644 4.708587 10.730589 -19.148803 -1.723256 -1.563638 -2.165846 1.696188 26.352767 13.539508 8.197800 -7.125000 0.000000 0.000000 0.176900 47.734000 0.011900 5.993357 -2.422284 -1.690346 83.502888 -1.688629 -20.277844 -10.635116 15.523521 -1.415497 1.889057 -0.505260 3.370754 -25.548228 9.793713 -5.193300 7.125000 0.000000 0.000000 -0.316300 -18.660300 -0.198500 
0.786606 26.876427 -15.736814 0.737454 -3.040099 4.979562 3.875412 3.111447 1.149026 -20.058146 -6.143511 -18.411221 3.521728 11.015826 34.172586 1.565110 2.884459 26.505826 0.001400 -0.238500 -0.655300 -5.681018 -4.068493 0.355332 26.085732 -1.423749 -20.221226 -3.400869 -9.185402 28.394207 0.305835 -16.680009 21.339216 -0.478000 -4.433700 12.300100 2.381659 2.598317 12.862144 0.961289 3.642717 -0.506589 0.894876 2.184957 -8.036436 -9.331626 -4.132054 -12.498754 5.989937 -4.238097 10.492052 3.888500 -2.201100 8.011900 -7.681675 3.579302 -2.067441 -84.861692 0.670977 4.112731 10.096969 -18.007810 -1.482258 -1.612208 -1.996673 2.413209 25.739239 11.638361 6.993100 -7.125000 0.000000 0.000000 -0.116600 45.379100 -0.001100 6.007857 -2.454865 -1.724500 83.718511 -2.383716 -19.776885 -10.654070 15.545340 -1.423148 1.860382 -0.477706 2.608915 -24.980695 9.910301 -5.119900 7.125000 0.000000 0.000000 0.117400 -18.587600 0.073900 
0.778404 26.880728 -15.712508 0.887967 -2.578163 5.063091 3.872012 3.100518 1.155087 -20.113647 -6.713164 -18.387935 3.394126 10.844490 33.538147 1.508786 3.292081 26.347172 0.000600 0.158700 0.436100 -5.680834 -4.063171 0.337344 25.851932 -1.294324 -19.907456 -3.264436 -8.926560 27.577619 0.254041 -16.308186 21.444197 -0.389300 -4.006500 11.095100 2.345034 2.456770 12.609648 0.948769 3.435664 -0.490415 0.904865 2.086037 -7.854848 -9.201376 -4.216909 -12.855090 5.991542 -4.357609 10.488102 3.843100 -2.240800 8.087800 -7.707371 3.613228 -2.049361 -85.003068 0.821692 4.290285 9.755692 -17.378187 -1.354561 -1.656341 -1.899665 2.700356 25.632211 10.494333 6.364900 -7.125000 0.000000 0.000000 -0.042900 44.006300 0.001100 6.021138 -2.495175 -1.755322 83.865840 -2.813275 -18.967260 -10.679641 15.572439 -1.433416 1.838826 -0.474261 2.223074 -24.598786 10.126340 -5.140800 7.125000 0.000000 0.000000 0.418400 -18.375600 0.265200 
0.768901 26.875527 -15.681600 1.046894 -2.302838 5.283612 3.870018 3.086710 1.161441 -20.198627 -7.192964 -18.490429 3.272227 10.683781 32.942895 1.430362 3.638041 25.998612 0.003100 0.357600 0.982500 -5.686468 -4.053139 0.341237 25.589516 -0.822498 -19.588662 -3.142278 -8.688417 26.816157 0.259548 -16.257487 21.426941 -0.390000 -4.010000 11.104900 2.187389 2.375101 12.254665 0.931500 3.287387 -0.581516 0.975833 2.024344 -7.871013 -8.909985 -4.185717 -12.982300 5.900264 -4.372464 10.533057 3.747200 -2.235800 8.121800 -7.686197 3.654013 -2.075166 -85.100116 1.537752 5.622357 9.769621 -17.403285 -1.342653 -1.649123 -2.004936 2.379941 26.010660 11.626708 7.083800 -7.125000 0.000000 0.000000 0.173900 45.417300 0.001800 6.001725 -2.553207 -1.808130 84.059726 -3.711591 -17.217388 -10.891180 15.868721 -1.504408 1.822370 -0.411214 1.558704 -24.307035 9.891127 -4.939600 7.125000 0.000000 0.000000 0.624300 -18.708700 0.391100 
0.755598 26.847119 -15.656893 1.020627 -2.175696 5.326705 3.863468 3.081624 1.166866 -20.085154 -7.375077 -18.509448 3.163187 10.531814 32.413194 1.369501 3.770921 25.661240 0.007300 0.551800 1.516300 -5.701562 -4.038697 0.345327 25.539263 -0.153176 -19.040542 -3.036270 -8.462301 26.116302 0.240640 -16.191356 21.593599 -0.358800 -3.848200 10.649900 2.110925 2.364920 12.158206 0.949147 3.263780 -0.697644 1.053052 2.021098 -8.107744 -8.652871 -4.190633 -12.655606 5.823879 -4.453844 10.432899 3.661300 -2.269800 8.026500 -7.653169 3.695844 -2.105419 -85.170501 2.361206 7.123511 9.841584 -17.531899 -1.337858 -1.653887 -2.159748 2.057788 26.775792 13.411477 8.306300 -7.125000 0.000000 0.000000 0.677400 47.673300 0.044700 5.962626 -2.602400 -1.863806 84.272760 -4.836955 -15.144420 -11.216862 16.346241 -1.619539 1.802896 -0.361627 0.910120 -24.052152 9.871842 -4.856900 7.125000 0.000000 0.000000 0.819200 -18.787000 0.511800 
